<?xml version="1.0" encoding="utf-8"?>
<!-- Generator: Adobe Illustrator 19.0.0, SVG Export Plug-In . SVG Version: 6.00 Build 0)  -->
<svg version="1.1" id="Capa_1" xmlns="http://www.w3.org/2000/svg" xmlns:xlink="http://www.w3.org/1999/xlink" x="0px" y="0px"
	 viewBox="-280 109.2 537 536" style="enable-background:new -280 109.2 537 536;" xml:space="preserve">
<g>
	<path d="M38.5,270c-16.2-16.2-41.2-24.4-74.3-24.4c-7,0-14.4,0.4-22,1.1l-79.7-75.3l19-19c3.5-3.5,3.5-9.3,0-12.8l-26.4-26.4
		c-3.4-3.4-9.4-3.4-12.8,0l-118.3,118.3c-3.5,3.5-3.5,9.3,0,12.8l26.4,26.4c1.7,1.7,4,2.6,6.4,2.6c2.4,0,4.7-1,6.4-2.6l19-19
		l75.3,79.7c-3,31.4-1.1,72,23.3,96.4c1.8,1.8,4.1,2.6,6.4,2.6c2.3,0,4.6-0.9,6.4-2.6l66-66l50.6,50.6c1.8,1.8,4.1,2.6,6.4,2.6
		c2.3,0,4.6-0.9,6.4-2.6c3.5-3.5,3.5-9.3,0-12.8l-50.6-50.6l66-66C42,279.3,42,273.5,38.5,270z M-112.2,407.9
		c-14.6-21.2-14.7-53.8-11.9-78.7c0.3-2.6-0.6-5.3-2.4-7.2l-84.6-89.5c-1.7-1.8-4-2.8-6.4-2.8c0,0-0.1,0-0.1,0c-2.4,0-4.7,1-6.4,2.6
		l-19.2,19.2l-13.6-13.6l105.5-105.5l13.6,13.6l-19.2,19.2c-1.7,1.7-2.7,4.1-2.6,6.5c0,2.4,1.1,4.8,2.8,6.4l89.5,84.6
		c1.9,1.8,4.6,2.7,7.2,2.4c8.5-1,16.6-1.4,24.2-1.4c23.5,0,41.8,4.5,54.5,13.3L-112.2,407.9z"/>
</g>
<g>
	<g>
		<path d="M182.6,238.5c-44.7-44.7-104-69.3-167.2-69.3s-122.5,24.6-167.2,69.3c-86.4,86.4-92.4,224.7-14.9,318
			c-7.6,15.3-19.8,33.1-37.9,42c-8.7,4.3-13.6,13.6-12.1,23.2c1.5,9.6,8.9,17.1,18.5,18.6c4.5,0.7,10.9,1.4,18.7,1.4
			c20.9,0,51.7-4.9,83.2-27.6c35.1,18.9,73.5,28.1,111.6,28.1c61.2,0,121.8-23.7,167.4-69.3c44.7-44.7,69.3-104,69.3-167.2
			S227.3,283.2,182.6,238.5z M163.5,553.8C96,621.3-8.5,634.7-90.7,586.4c-5.4-3.2-12.1-2.2-16.4,2.1c-0.4,0.2-0.8,0.5-1.1,0.8
			c-27.1,21-53.7,25.4-71.3,25.4h-0.1c20.3-14.8,33.1-36.8,40.6-53.9c1.2-2.9,1.4-5.9,0.7-8.7c-0.3-2.7-1.4-5.4-3.3-7.6
			c-73.2-82.7-69.4-208.7,8.8-286.9c81.7-81.7,214.6-81.7,296.2,0C245.2,339.3,245.2,472.1,163.5,553.8z"/>
		<circle cx="15.4" cy="405.7" r="16.6"/>
	</g>
</g>
</svg>
